<?xml version="1.0" encoding="UTF-8" standalone="no"?>
<!-- Created with Inkscape (http://www.inkscape.org/) -->

<svg
   width="500"
   height="500"
   version="1.1"
   viewBox="0 0 132.29166 132.29167"
   id="svg14"
   sodipodi:docname="book_1.svg"
   inkscape:version="1.1 (ce6663b3b7, 2021-05-25)"
   xmlns:inkscape="http://www.inkscape.org/namespaces/inkscape"
   xmlns:sodipodi="http://sodipodi.sourceforge.net/DTD/sodipodi-0.dtd"
   xmlns="http://www.w3.org/2000/svg"
   xmlns:svg="http://www.w3.org/2000/svg">
  <defs
     id="defs18" />
  <sodipodi:namedview
     id="namedview16"
     pagecolor="#ffffff"
     bordercolor="#666666"
     borderopacity="1.0"
     inkscape:pageshadow="2"
     inkscape:pageopacity="0.0"
     inkscape:pagecheckerboard="0"
     inkscape:document-units="mm"
     showgrid="false"
     units="px"
     width="500px"
     inkscape:zoom="0.77771465"
     inkscape:cx="291.23793"
     inkscape:cy="376.74487"
     inkscape:window-width="1920"
     inkscape:window-height="1168"
     inkscape:window-x="0"
     inkscape:window-y="0"
     inkscape:window-maximized="1"
     inkscape:current-layer="svg14" />
  <path
     d="m 124.4275,84.755309 c 0,0 -5.44101,4.428006 -7.19137,7.313738 -2.15707,3.556278 -2.50943,5.927523 -2.50943,5.927523 L 6.6866407,98.109478 c 0,0 -1.8495554,-8.017979 5.4486293,-11.366177 7.298265,-3.348197 112.29363,-1.987795 112.29363,-1.987795 z"
     fill="#c7c7c7"
     id="path2"
     style="stroke-width:1.98788" />
  <path
     d="m 114.74113,97.996767 c 0,0 -1.27785,6.610883 0.7104,11.049133 2.08988,4.66545 8.21295,8.54803 8.21295,8.54803 l -103.979,2.99825 c 0,0 -15.6744634,-9.05286 -15.6744634,-12.77388 0,-3.721 2.6897223,-9.708626 2.6897223,-9.708626"
     fill="#ebebeb"
     id="path4"
     style="stroke-width:1.98788" />
  <path
     d="m 130.64442,83.316877 -111.206675,0.06896 c 0,0 -15.5150288,1.725074 -15.1909468,18.682683 C 4.570921,119.02585 19.93169,120.5831 19.93169,120.5831 l 110.54488,-0.0492"
     fill="none"
     stroke="#b75959"
     stroke-width="5.97954"
     id="path6" />
</svg>
