<?xml version="1.0" encoding="UTF-8" standalone="no"?>
<!-- Created with Inkscape (http://www.inkscape.org/) -->

<svg
   width="500"
   height="500"
   version="1.1"
   viewBox="0 0 132.29166 132.29167"
   id="svg14"
   sodipodi:docname="book_3.svg"
   inkscape:version="1.1 (ce6663b3b7, 2021-05-25)"
   xmlns:inkscape="http://www.inkscape.org/namespaces/inkscape"
   xmlns:sodipodi="http://sodipodi.sourceforge.net/DTD/sodipodi-0.dtd"
   xmlns="http://www.w3.org/2000/svg"
   xmlns:svg="http://www.w3.org/2000/svg">
  <defs
     id="defs18" />
  <sodipodi:namedview
     id="namedview16"
     pagecolor="#ffffff"
     bordercolor="#666666"
     borderopacity="1.0"
     inkscape:pageshadow="2"
     inkscape:pageopacity="0.0"
     inkscape:pagecheckerboard="0"
     inkscape:document-units="mm"
     showgrid="false"
     units="px"
     width="500px"
     inkscape:zoom="1.5554293"
     inkscape:cx="146.90478"
     inkscape:cy="222.44663"
     inkscape:window-width="1920"
     inkscape:window-height="1168"
     inkscape:window-x="0"
     inkscape:window-y="0"
     inkscape:window-maximized="1"
     inkscape:current-layer="svg14" />
  <path
     d="m 124.4275,84.755309 c 0,0 -5.44101,4.428006 -7.19137,7.313738 -2.15707,3.556278 -2.50943,5.927523 -2.50943,5.927523 L 6.6866407,98.109478 c 0,0 -1.8495554,-8.017979 5.4486293,-11.366177 7.298265,-3.348197 112.29363,-1.987795 112.29363,-1.987795 z"
     fill="#c7c7c7"
     id="path2"
     style="stroke-width:1.98788" />
  <path
     d="m 114.74113,97.996767 c 0,0 -1.27785,6.610883 0.7104,11.049133 2.08988,4.66545 8.21295,8.54803 8.21295,8.54803 l -103.979,2.99825 c 0,0 -15.6744634,-9.05286 -15.6744634,-12.77388 0,-3.721 2.6897223,-9.708626 2.6897223,-9.708626"
     fill="#ebebeb"
     id="path4"
     style="stroke-width:1.98788" />
  <path
     d="m 130.64442,83.316877 -111.206675,0.06896 c 0,0 -15.5150288,1.725074 -15.1909468,18.682683 C 4.570921,119.02585 19.93169,120.5831 19.93169,120.5831 l 110.54488,-0.0492"
     fill="none"
     stroke="#b75959"
     stroke-width="5.97954"
     id="path6" />
  <path
     d="m 108.84509,47.415186 c 0,0 -4.58408,3.769678 -6.05849,6.226441 -1.81722,3.027604 -2.11415,5.046335 -2.11415,5.046335 l -91.0237479,0.09615 c 0,0 -1.5582211,-6.825852 4.5902939,-9.67651 6.148514,-2.850657 94.605494,-1.692325 94.605494,-1.692325 z"
     fill="#c7c7c7"
     id="path8"
     style="stroke-width:1.98788" />
  <path
     d="m 100.66282,58.686189 c 0,0 -1.076573,5.628014 0.59851,9.406558 1.76077,3.971847 6.91944,7.277285 6.91944,7.277285 l -87.60244,2.552527 c 0,0 -13.2055419,-7.706843 -13.2055419,-10.874941 0,-3.168098 2.2661677,-8.265271 2.2661677,-8.265271"
     fill="#ebebeb"
     id="path10"
     style="stroke-width:1.98788" />
  <path
     d="m 114.07934,46.193505 -93.691007,0.05872 c 0,0 -13.0713775,1.4686 -12.7982341,15.905119 0.2730639,14.436342 13.2143661,15.762064 13.2143661,15.762064 l 93.133485,-0.04197"
     fill="none"
     stroke="#59b796"
     stroke-width="5.06412"
     id="path12" />
  <path
     d="m 97.318405,14.937183 c 0,0 -3.968502,3.293897 -5.24492,5.440585 -1.573194,2.645482 -1.830251,4.409424 -1.830251,4.409424 l -78.800576,0.08402 c 0,0 -1.348974,-5.964344 3.973886,-8.455213 5.322855,-2.490867 81.901341,-1.478731 81.901341,-1.478731 z"
     fill="#c7c7c7"
     id="path8-3"
     style="stroke-width:1.72894" />
  <path
     d="m 90.234898,24.785643 c 0,0 -0.932003,4.917687 0.518138,8.219331 1.524325,3.47055 5.99026,6.3588 5.99026,6.3588 L 20.904594,41.59414 c 0,0 -11.4322283,-6.734142 -11.4322283,-9.502386 0,-2.768244 1.9618553,-7.22209 1.9618553,-7.22209"
     fill="#ebebeb"
     id="path10-6"
     style="stroke-width:1.72894" />
  <path
     d="m 101.84978,13.869694 -81.109671,0.05131 c 0,0 -11.3160783,1.283243 -11.0796133,13.897691 0.236395,12.614294 11.4398713,13.772693 11.4398713,13.772693 l 80.627013,-0.03667"
     fill="none"
     stroke="#59b796"
     stroke-width="4.40448"
     id="path12-7"
     style="stroke:#5973b7;stroke-opacity:1" />
</svg>
