<?xml version="1.0" encoding="UTF-8"?>
<!-- Created with Inkscape (http://www.inkscape.org/) -->
<svg width="500" height="500" version="1.1" viewBox="0 0 132.29 132.29" xmlns="http://www.w3.org/2000/svg">
 <g>
  <circle cx="67.93" cy="65.714" r="58.121" fill="#7ec5f0"/>
  <circle cx="19.47" cy="19.01" r="18.33" fill="#5ab0e3"/>
  <circle cx="19.171" cy="105.18" r="10.852" fill="#5ab0e3"/>
  <g fill="#2e92ce">
   <circle cx="122.29" cy="107.02" r="9.415"/>
   <circle cx="112.67" cy="125.7" r="6.283"/>
   <circle cx="37.616" cy="124.22" r="4.9135"/>
  </g>
  <path d="m39.04 93.835s0.06394-3.2252 1.7117-4.6113c1.6478-1.3861 2.6906-1.2836 2.6906-1.2836l48.319-0.0926s1.611-0.3941 3.4206-2.2775c1.8096-1.8834 1.9269-4.4185 1.9269-4.4185l-0.0712 11.451s-0.78792 6.5127-5.9281 6.8618c-5.1402 0.34906-24.746 0.03723-24.746 0.03723l-17.21-0.0037-5.6356-0.0376s-3.4692 0.55516-4.4773-5.6259z" fill="#ecf0f1"/>
  <path d="m37.173 95.847 0.09968-60.101s-0.27258-2.797 1.8981-4.9995c2.1706-2.2024 4.6667-1.9928 4.6667-1.9928l47.221-0.01316s1.7565-0.12889 3.8064 1.6466c2.0499 1.7755 2.1954 4.1459 2.1954 4.1459l0.047 48.526s-0.40539 2.4658-1.5246 3.5256c-1.1193 1.0598-2.3367 2.1201-3.6871 2.2601-1.3504 0.13998-47.003 0.11581-47.003 0.11581s-4.3248 0.44213-4.3402 4.8729c-0.01534 4.4308 4.4132 5.1425 4.4132 5.1425l5.4831 0.03272 0.06014-6.789 16.744 0.05583-0.06007 6.7362 24.077-0.03235s2.6509-0.23682 4.014-2.0978c1.3631-1.861 1.7538-3.8674 1.7538-3.8674s0.66539 4.1572-1.2823 6.7451c-1.9477 2.5878-4.2602 2.4521-4.2602 2.4521l-24.386 0.0658-8.2026-2.1345-8.3865 2.0738-7.1719 0.0746s-2.6971 0.0358-4.5897-2.3669c-1.8926-2.4028-1.586-4.0774-1.586-4.0774z" fill="#788ec7"/>
  <path d="m50.51 92.22 0.03022 16.666 8.1741-6.6561 8.4478 6.9172 0.09199-16.871-16.744-0.05583" fill="#e74c3c"/>
 </g>
</svg>
