<?xml version="1.0" encoding="UTF-8"?>
<!-- Created with Inkscape (http://www.inkscape.org/) -->
<svg width="500" height="500" version="1.1" viewBox="0 0 132.29 132.29" xmlns="http://www.w3.org/2000/svg">
 <g>
  <circle cx="67.93" cy="65.714" r="58.121" fill="#e4b45c"/>
  <circle cx="22.532" cy="37.532" r="18.33" fill="#b8860d"/>
  <circle cx="83.695" cy="113.95" r="10.852" fill="#d39f3f"/>
  <circle cx="17.593" cy="118.9" r="9.415" fill="#d39f3f"/>
  <circle cx="43.078" cy="6.6268" r="6.283" fill="#b8860d"/>
  <circle cx="120.58" cy="24.472" r="4.9135" fill="#d39f3f"/>
  <path d="m42.311 91.28s-1.594-5.6743 3.9648-20.42c5.5588-14.746 17.329-26.67 17.329-26.67l4.0374 2.7407-2.4869-4.1335s6.7316-6.2534 15.204-10.225c8.4721-3.972 21.538-5.5327 21.538-5.5327l-10.482 11.433z" fill="#3a5ccd"/>
  <path d="m42.311 91.28s3.9666 2.5457 13.706-1.2032c9.739-3.7489 14.964-7.0863 14.964-7.0863l-3.6823-6.1229 6.2504 4.2301s6.362-5.1149 10.021-9.0167c3.6588-3.9018 8.2617-11.172 8.2617-11.172l-3.6359-6.242 5.1129 3.3256s6.0904-12.593 7.0205-18.427c0.93009-5.834 1.5679-12.527 1.5679-12.527l-59.586 64.241" fill="#6387ff"/>
  <path d="m91.569 38.455-55.261 56.21s-1.0744 3.3705-0.06369 4.3103c1.0107 0.93983 4.4415-0.65121 4.4415-0.65121z" fill="#334a98"/>
 </g>
</svg>
